<!-- this file contains an SVG stack -->
<!-- it can be reviewed using www.svgviewer.dev -->
<!-- Helpful resources:
     - https://kovtunos.pro/code/svg-sprites
     - https://www.svgsprite.com/tools/svg-sprite-generator/
     - https://svg-sprite-builder.netlify.app/
     - https://github.com/svg-sprite/svg-sprite
-->
<svg xmlns="http://www.w3.org/2000/svg" fill="none" height="100" width="100" viewBox="0 0 100 100">
    <style>
        :root&gt;svg{display:none}:root&gt;svg:target{display:block}
    </style>

    <!-- lock -->
    <svg id="lock-l1" fill="none" height="100" width="100" viewBox="0 0 100 100">
        <path xmlns="http://www.w3.org/2000/svg" fill="url(#paint0_linear_538_65512)" fill-rule="evenodd" d="M50.0762 12.474C40.4664 12.474 32.6762 20.3091 32.6762 29.974V64.974C32.6762 68.1957 30.0794 70.8074 26.8762 70.8074C23.6729 70.8074 21.0762 68.1957 21.0762 64.974V29.974C21.0762 13.8657 34.0599 0.807373 50.0762 0.807373C66.0924 0.807373 79.0762 13.8657 79.0762 29.974V64.974C79.0762 68.1957 76.4794 70.8074 73.2762 70.8074C70.0729 70.8074 67.4762 68.1957 67.4762 64.974V29.974C67.4762 20.3091 59.6859 12.474 50.0762 12.474Z" clip-rule="evenodd"/><defs xmlns="http://www.w3.org/2000/svg"><linearGradient id="paint0_linear_538_65512" x1="34.902" x2="108.667" y1="11.455" y2="26.461" gradientUnits="userSpaceOnUse"><stop stop-color="#FF6161"/><stop offset="1" stop-color="#F52828"/></linearGradient></defs>
    </svg>
    <svg id="lock-l2" fill="none" height="100" width="100" viewBox="0 0 100 100">
        <rect xmlns="http://www.w3.org/2000/svg" width="81" height="63" x="9.576" y="36.307" fill="#FFB7B5" fill-opacity=".6" stroke="url(#paint0_linear_541_65547)" rx="17.962"/><defs xmlns="http://www.w3.org/2000/svg"><linearGradient id="paint0_linear_541_65547" x1="4.976" x2="45.883" y1="40.379" y2="120.426" gradientUnits="userSpaceOnUse"><stop stop-color="white"/><stop offset=".766" stop-color="white" stop-opacity="0"/></linearGradient></defs>
    </svg>
    <mask id="lock-l2-mask" mask-type="luminance">
        <rect fill="black" x="0" y="0" width="100" height="100" />
        <rect fill="white" width="82" height="64" x="9.076" y="35.807" rx="18.462"/>
    </mask>
    <svg id="lock-l3" fill="none" height="100" width="100" viewBox="0 0 100 100">
        <rect xmlns="http://www.w3.org/2000/svg" width="34" height="23" x="61.576" y="53.307" fill="url(#paint0_linear_541_65560)" stroke="url(#paint1_linear_541_65560)" rx="11.5" transform="rotate(90 61.576 53.307)"/><defs xmlns="http://www.w3.org/2000/svg"><linearGradient id="paint0_linear_541_65560" x1="95.321" x2="93.481" y1="58.653" y2="81.315" gradientUnits="userSpaceOnUse"><stop stop-color="#F9FFFC"/><stop offset="1" stop-color="#F7FBFF" stop-opacity=".28"/></linearGradient><linearGradient id="paint1_linear_541_65560" x1="69.8" x2="92.69" y1="82.516" y2="50.307" gradientUnits="userSpaceOnUse"><stop stop-color="white"/><stop offset="1" stop-color="white" stop-opacity="0"/></linearGradient></defs>
    </svg>

    <!-- notes --> 
    <svg id="notes-l1" fill="none" height="100" width="100" viewBox="0 0 100 100">
        <g xmlns="http://www.w3.org/2000/svg" clip-path="url(#clip0_541_65538)"><path fill="url(#paint0_linear_541_65538)" d="M48.6228 2.71314L17.0946 10.9272C5.6585 13.9066 0.79422 22.1521 3.86859 33.3081L14.2811 71.0921C17.4059 82.431 25.8183 87.0607 37.2543 84.0812L68.7825 75.8672C80.4029 72.8397 85.1195 64.7896 81.9947 53.4507L71.5822 15.6666C68.5078 4.51065 60.2432 -0.314322 48.6228 2.71314Z"/></g><defs xmlns="http://www.w3.org/2000/svg"><linearGradient id="paint0_linear_541_65538" x1="32.857" x2="51.986" y1="6.821" y2="80.243" gradientUnits="userSpaceOnUse"><stop stop-color="#BC94FF"/><stop offset="1" stop-color="#9F66FF"/></linearGradient><clipPath id="clip0_541_65538"><path fill="white" d="M0 0H100V100H0z"/></clipPath></defs>
    </svg>
    <svg id="notes-l2" fill="none" height="100" width="100" viewBox="0 0 100 100">
        <rect width="48.998" height="42.514" fill="#8237FF" fill-opacity=".5" rx="14" transform="matrix(-.26568 -.96406 .9677 -.25211 27.049 70.9)"/>
    </svg>
    <svg id="notes-l3" fill="none" height="100" width="100" viewBox="0 0 100 100">
        <path xmlns="http://www.w3.org/2000/svg" fill="#BA90FF" fill-opacity=".35" stroke="url(#paint0_linear_541_65564)" stroke-linecap="round" stroke-linejoin="round" d="M45.6309 22.7654H78.2715C84.1951 22.7654 88.7369 24.4232 91.7969 27.4353C94.8558 30.4465 96.501 34.8767 96.501 40.5554V79.6726C96.5009 85.4478 94.8549 89.886 91.7979 92.8816C88.7393 95.8786 84.198 97.4998 78.2715 97.4998H45.6309C39.8017 97.4997 35.2586 95.879 32.1738 92.8796C29.0911 89.8823 27.3985 85.4439 27.3984 79.6726V40.5554C27.3984 34.8806 29.0901 30.4502 32.1748 27.4373C35.261 24.4229 39.8047 22.7655 45.6309 22.7654Z"/><defs xmlns="http://www.w3.org/2000/svg"><linearGradient id="paint0_linear_541_65564" x1="38.058" x2="87.02" y1="31.089" y2="87.22" gradientUnits="userSpaceOnUse"><stop stop-color="white" stop-opacity=".25"/><stop offset="1" stop-color="white" stop-opacity="0"/></linearGradient></defs>
    </svg>
    <mask id="notes-l3-mask" mask-type="luminance">
        <rect fill="black" x="0" y="0" width="100" height="100" />
        <path fill="white" d="M78.2717 22.2654H45.6313C33.7918 22.2654 26.8984 29.0058 26.8984 40.5553V79.6723C26.8984 91.4111 33.7918 98 45.6313 98H78.2717C90.302 98 97.0007 91.4111 97.0007 79.6723V40.5553C97.0007 29.0058 90.302 22.2654 78.2717 22.2654Z"/>
    </mask>
    <svg id="notes-l4" fill="none" height="100" width="100" viewBox="0 0 100 100">
        <g xmlns="http://www.w3.org/2000/svg" filter="url(#filter0_d_541_65577)"><mask id="a" fill="white"><path d="M46.6826 74.2971H77.2158C78.7697 74.4486 79.9423 75.7359 79.9424 77.2883C79.9424 78.7992 78.7698 80.091 77.2158 80.2424H46.6826C45.5143 80.3938 44.3848 79.8258 43.7617 78.8792C43.1387 77.8947 43.1388 76.6451 43.7617 75.6985C44.3848 74.714 45.5143 74.1836 46.6826 74.2971ZM77.2158 57.0256C78.8905 57.0256 80.2539 58.3554 80.2539 59.9836C80.2538 61.6119 78.8904 62.9368 77.2158 62.9368H46.6826C45.0041 62.9368 43.6446 61.6118 43.6445 59.9836C43.6445 58.3554 45.0041 57.0256 46.6826 57.0256H77.2158ZM58.3232 39.8752C60.0018 39.8752 61.3652 41.2009 61.3652 42.8254C61.3651 44.4952 60.0017 45.8206 58.3232 45.8206H46.6826C45.0041 45.8205 43.6445 44.4947 43.6445 42.8665C43.6447 41.2383 45.0042 39.9133 46.6826 39.9133V39.8752H58.3232Z"/></mask><path fill="url(#paint0_linear_541_65577)" d="M46.6826 74.2971H77.2158C78.7697 74.4486 79.9423 75.7359 79.9424 77.2883C79.9424 78.7992 78.7698 80.091 77.2158 80.2424H46.6826C45.5143 80.3938 44.3848 79.8258 43.7617 78.8792C43.1387 77.8947 43.1388 76.6451 43.7617 75.6985C44.3848 74.714 45.5143 74.1836 46.6826 74.2971ZM77.2158 57.0256C78.8905 57.0256 80.2539 58.3554 80.2539 59.9836C80.2538 61.6119 78.8904 62.9368 77.2158 62.9368H46.6826C45.0041 62.9368 43.6446 61.6118 43.6445 59.9836C43.6445 58.3554 45.0041 57.0256 46.6826 57.0256H77.2158ZM58.3232 39.8752C60.0018 39.8752 61.3652 41.2009 61.3652 42.8254C61.3651 44.4952 60.0017 45.8206 58.3232 45.8206H46.6826C45.0041 45.8205 43.6445 44.4947 43.6445 42.8665C43.6447 41.2383 45.0042 39.9133 46.6826 39.9133V39.8752H58.3232Z"/><path fill="url(#paint1_linear_541_65577)" d="M46.6826 74.2971L46.5859 75.2924L46.6341 75.2971H46.6826V74.2971ZM77.2158 74.2971L77.3128 73.3018L77.2644 73.2971H77.2158V74.2971ZM79.9424 77.2883L80.9424 77.2883L80.9424 77.2883L79.9424 77.2883ZM77.2158 80.2424V81.2424H77.2644L77.3128 81.2377L77.2158 80.2424ZM46.6826 80.2424V79.2424H46.6181L46.5541 79.2507L46.6826 80.2424ZM43.7617 78.8792L42.9167 79.4139L42.9215 79.4215L42.9264 79.429L43.7617 78.8792ZM43.7617 75.6985L44.5971 76.2482L44.602 76.2408L44.6067 76.2333L43.7617 75.6985ZM80.2539 59.9836L81.2539 59.9837V59.9836H80.2539ZM46.6826 62.9368L46.6826 63.9368H46.6826V62.9368ZM43.6445 59.9836L42.6445 59.9836L42.6445 59.9837L43.6445 59.9836ZM46.6826 57.0256L46.6826 56.0256L46.6826 56.0256L46.6826 57.0256ZM61.3652 42.8254L62.3652 42.8255V42.8254H61.3652ZM46.6826 45.8206L46.6826 46.8206H46.6826V45.8206ZM43.6445 42.8665L42.6445 42.8663V42.8665H43.6445ZM46.6826 39.9133L46.6826 40.9133L47.6826 40.9133V39.9133H46.6826ZM46.6826 39.8752V38.8752H45.6826V39.8752H46.6826ZM46.6826 74.2971V75.2971H77.2158V74.2971V73.2971H46.6826V74.2971ZM77.2158 74.2971L77.1188 75.2924C78.1643 75.3943 78.9423 76.2546 78.9424 77.2884L79.9424 77.2883L80.9424 77.2883C80.9422 75.2172 79.375 73.5028 77.3128 73.3018L77.2158 74.2971ZM79.9424 77.2883H78.9424C78.9424 78.2737 78.1713 79.1446 77.1188 79.2471L77.2158 80.2424L77.3128 81.2377C79.3682 81.0374 80.9424 79.3248 80.9424 77.2883H79.9424ZM77.2158 80.2424V79.2424H46.6826V80.2424V81.2424H77.2158V80.2424ZM46.6826 80.2424L46.5541 79.2507C45.7883 79.3499 45.0229 78.9764 44.597 78.3293L43.7617 78.8792L42.9264 79.429C43.7467 80.6751 45.2404 81.4376 46.8111 81.2341L46.6826 80.2424ZM43.7617 78.8792L44.6067 78.3444C44.1862 77.68 44.1978 76.855 44.5971 76.2482L43.7617 75.6985L42.9263 75.1488C42.0798 76.4353 42.0911 78.1094 42.9167 79.4139L43.7617 78.8792ZM43.7617 75.6985L44.6067 76.2333C45.0198 75.5806 45.7779 75.2139 46.5859 75.2924L46.6826 74.2971L46.7793 73.3018C45.2508 73.1533 43.7498 73.8474 42.9167 75.1637L43.7617 75.6985ZM77.2158 57.0256V58.0256C78.3631 58.0256 79.2539 58.9322 79.2539 59.9836H80.2539H81.2539C81.2539 57.7785 79.4179 56.0256 77.2158 56.0256V57.0256ZM80.2539 59.9836L79.2539 59.9836C79.2538 61.033 78.3651 61.9368 77.2158 61.9368V62.9368V63.9368C79.4157 63.9368 81.2538 62.1907 81.2539 59.9837L80.2539 59.9836ZM77.2158 62.9368V61.9368H46.6826V62.9368V63.9368H77.2158V62.9368ZM46.6826 62.9368L46.6826 61.9368C45.5303 61.9368 44.6446 61.0338 44.6445 59.9836L43.6445 59.9836L42.6445 59.9837C42.6447 62.1899 44.478 63.9368 46.6826 63.9368L46.6826 62.9368ZM43.6445 59.9836H44.6445C44.6445 58.9314 45.5323 58.0256 46.6826 58.0256L46.6826 57.0256L46.6826 56.0256C44.4758 56.0257 42.6445 57.7794 42.6445 59.9836H43.6445ZM46.6826 57.0256V58.0256H77.2158V57.0256V56.0256H46.6826V57.0256ZM58.3232 39.8752V40.8752C59.4779 40.8752 60.3652 41.7811 60.3652 42.8254H61.3652H62.3652C62.3652 40.6207 60.5257 38.8752 58.3232 38.8752V39.8752ZM61.3652 42.8254L60.3652 42.8253C60.3651 43.9247 59.4678 44.8206 58.3232 44.8206V45.8206V46.8206C60.5356 46.8206 62.365 45.0657 62.3652 42.8255L61.3652 42.8254ZM58.3232 45.8206V44.8206H46.6826V45.8206V46.8206H58.3232V45.8206ZM46.6826 45.8206L46.6826 44.8206C45.5306 44.8205 44.6445 43.917 44.6445 42.8665H43.6445H42.6445C42.6445 45.0724 44.4775 46.8205 46.6826 46.8206L46.6826 45.8206ZM43.6445 42.8665L44.6445 42.8666C44.6446 41.8163 45.5304 40.9133 46.6826 40.9133L46.6826 39.9133L46.6826 38.9133C44.478 38.9133 42.6448 40.6603 42.6445 42.8663L43.6445 42.8665ZM46.6826 39.9133H47.6826V39.8752H46.6826H45.6826V39.9133H46.6826ZM46.6826 39.8752V40.8752H58.3232V39.8752V38.8752H46.6826V39.8752Z" mask="url(#a)"/></g><defs xmlns="http://www.w3.org/2000/svg"><filter id="filter0_d_541_65577" width="56.959" height="60.392" x="38.295" y="34.875" color-interpolation-filters="sRGB" filterUnits="userSpaceOnUse"><feFlood flood-opacity="0" result="BackgroundImageFix"/><feColorMatrix in="SourceAlpha" result="hardAlpha" values="0 0 0 0 0 0 0 0 0 0 0 0 0 0 0 0 0 0 127 0"/><feOffset dx="5" dy="5"/><feGaussianBlur stdDeviation="5"/><feColorMatrix values="0 0 0 0 0.577356 0 0 0 0 0.359375 0 0 0 0 0.9375 0 0 0 0.5 0"/><feBlend in2="BackgroundImageFix" result="effect1_dropShadow_541_65577"/><feBlend in="SourceGraphic" in2="effect1_dropShadow_541_65577" result="shape"/></filter><linearGradient id="paint0_linear_541_65577" x1="77.633" x2="36.458" y1="47.169" y2="48.398" gradientUnits="userSpaceOnUse"><stop stop-color="white"/><stop offset="1" stop-color="white" stop-opacity=".2"/></linearGradient><linearGradient id="paint1_linear_541_65577" x1="49.178" x2="75.331" y1="44.581" y2="74.218" gradientUnits="userSpaceOnUse"><stop stop-color="white" stop-opacity=".25"/><stop offset="1" stop-color="white" stop-opacity="0"/></linearGradient></defs>
    </svg>
</svg>